<svg width="177" height="161" viewBox="0 0 177 161" fill="none" xmlns="http://www.w3.org/2000/svg">
<path d="M1.63216 0.279785L9.21616 5.33579L21.8562 15.4478L39.5522 29.3518L43.3442 31.8798V34.4078L49.6642 36.9358L55.9842 41.9918V44.5198L61.0402 47.0478L73.6802 57.1598L86.3202 67.2718L92.6402 64.7438L109.072 50.8398L120.448 41.9918H122.976V39.4638L136.88 29.3518L140.672 25.5598H143.2V23.0318L149.52 20.5038V17.9758L171.008 1.54379L174.8 0.279785L176.064 2.80779V20.5038L169.744 26.8238L152.048 40.7278L144.464 47.0478H141.936V49.5758L125.504 62.2158L111.6 73.5918L106.544 77.3838H104.016L102.752 81.1758L86.3202 93.8158L80.0002 100.136L85.0562 102.664L88.8482 103.928L98.9602 96.3438L100.224 93.8158H104.016V88.7598L109.072 87.4958L122.976 76.1198L140.672 62.2158L157.104 48.3118L168.48 39.4638H171.008V36.9358H174.8L176.064 39.4638V55.8958L169.744 63.4798L164.688 67.2718H162.16V69.7998L157.104 73.5918H154.576V76.1198L140.672 86.2318L124.24 100.136L107.808 112.776L104.016 115.304V117.832L109.072 121.624H112.864L116.656 117.832H119.184V115.304L125.504 111.512L126.768 108.984H130.56L133.088 103.928L154.576 87.4958L172.272 73.5918H174.8L176.064 76.1198V87.4958L169.744 100.136L153.312 112.776L133.088 129.208L124.24 135.528L122.976 138.056H119.184L116.656 143.112L112.864 145.64L107.808 144.376L91.3762 131.736L71.1522 115.304L61.0402 107.72V105.192L55.9842 103.928V101.4L50.9282 98.8718L38.2882 90.0238L31.9682 83.7038L18.0642 73.5918L19.3282 86.2318L37.0242 100.136L50.9282 111.512V114.04L55.9842 115.304L62.3042 121.624L66.0962 122.888L71.1522 127.944L74.9442 130.472V133L80.0002 134.264L86.3202 140.584L98.9602 150.696L100.224 154.488L95.1682 159.544L92.6402 160.808H83.7922L80.0002 159.544V157.016L74.9442 155.752L73.6802 153.224L69.8882 151.96L63.5682 145.64L55.9842 140.584V138.056L50.9282 135.528L33.2322 121.624L21.8562 112.776V110.248L16.8002 107.72L9.21616 102.664V100.136L4.16016 97.6078L0.368164 91.2878V1.54379L1.63216 0.279785ZM18.0642 36.9358V49.5758L35.7602 63.4798L39.5522 67.2718L43.3442 71.0638H47.1362L48.4002 74.8558L59.7762 83.7038L66.0962 86.2318L69.8882 84.9678L73.6802 79.9118L55.9842 66.0078L45.8722 57.1598L28.1762 43.2558L20.5922 36.9358H18.0642Z" fill="#F0CE9A"/>
</svg>
