<svg width="177" height="161" viewBox="0 0 177 161" fill="none" xmlns="http://www.w3.org/2000/svg">
<path d="M1.63198 0.279999L9.21598 5.336L21.856 15.448L39.552 29.352L43.344 31.88V34.408L49.664 36.936L55.984 41.992V44.52L61.04 47.048L73.68 57.16L86.32 67.272L92.64 64.744L109.072 50.84L120.448 41.992H122.976V39.464L136.88 29.352L140.672 25.56H143.2V23.032L149.52 20.504V17.976L171.008 1.544L174.8 0.279999L176.064 2.808V20.504L169.744 26.824L152.048 40.728L144.464 47.048H141.936V49.576L125.504 62.216L111.6 73.592L106.544 77.384H104.016L102.752 81.176L86.32 93.816L80 100.136L85.056 102.664L88.848 103.928L98.96 96.344L100.224 93.816H104.016V88.76L109.072 87.496L122.976 76.12L140.672 62.216L157.104 48.312L168.48 39.464H171.008V36.936H174.8L176.064 39.464V55.896L169.744 63.48L164.688 67.272H162.16V69.8L157.104 73.592H154.576V76.12L140.672 86.232L124.24 100.136L107.808 112.776L104.016 115.304V117.832L109.072 121.624H112.864L116.656 117.832H119.184V115.304L125.504 111.512L126.768 108.984H130.56L133.088 103.928L154.576 87.496L172.272 73.592H174.8L176.064 76.12V87.496L169.744 100.136L153.312 112.776L133.088 129.208L124.24 135.528L122.976 138.056H119.184L116.656 143.112L112.864 145.64L107.808 144.376L91.376 131.736L71.152 115.304L61.04 107.72V105.192L55.984 103.928V101.4L50.928 98.872L38.288 90.024L31.968 83.704L18.064 73.592L19.328 86.232L37.024 100.136L50.928 111.512V114.04L55.984 115.304L62.304 121.624L66.096 122.888L71.152 127.944L74.944 130.472V133L80 134.264L86.32 140.584L98.96 150.696L100.224 154.488L95.168 159.544L92.64 160.808H83.792L80 159.544V157.016L74.944 155.752L73.68 153.224L69.888 151.96L63.568 145.64L55.984 140.584V138.056L50.928 135.528L33.232 121.624L21.856 112.776V110.248L16.8 107.72L9.21598 102.664V100.136L4.15998 97.608L0.367981 91.288V1.544L1.63198 0.279999ZM18.064 36.936V49.576L35.76 63.48L39.552 67.272L43.344 71.064H47.136L48.4 74.856L59.776 83.704L66.096 86.232L69.888 84.968L73.68 79.912L55.984 66.008L45.872 57.16L28.176 43.256L20.592 36.936H18.064Z" fill="#F0CE9A"/>
</svg>
