<svg width="227" height="31" viewBox="0 0 227 31" fill="none" xmlns="http://www.w3.org/2000/svg">
<path d="M177 13H211V15L215 13H223L226 16L227 23L223 29L219 31H213L208 26V20L209 17L206 16L205 31H198L201 16H197L196 31H189L192 16L187 17L182 16V20L186 21L184 24L181 23L180 28L187 27L186 31H175L177 13ZM216 16L213 20V26L215 28L220 27L222 22L221 17L216 16Z" fill="#333333"/>
<path d="M55 10H64L66 11L64 15L57 14L58 17L64 20L66 23L71 13H76L79 27L81 15V13H86L91 21L92 13H97L94 31H90L85 22L84 31H74V26L69 27L68 31H63H60H53L49 29L51 25L55 27L59 26V24L53 21L51 19L52 12L55 10ZM71 20L70 23H73L72 20H71Z" fill="#333333"/>
<path d="M20 1H48L47 3L40 5L44 11L45 14V26L43 31H39L41 22L40 13L36 7L31 10L33 15L41 20V21L34 20L35 26L32 23L27 17L23 16L17 24L14 30H12L14 19L19 11V6L28 4L29 3H19L20 1Z" fill="#333333"/>
<path d="M118 13H136L140 21L141 13H146L143 31H139L135 23V21H133V31H116L118 13ZM129 15L128 16H123L122 20L126 21L125 23H122L121 28L128 27L129 29L131 19V15H129Z" fill="#333333"/>
<path d="M102 10H114L116 12V18L115 20L116 26L113 30L110 31H99L102 10ZM107 13L106 18L111 17V14L107 13ZM106 21L105 28L110 27L111 22L106 21Z" fill="#333333"/>
<path d="M160 13H172L176 18L175 26L170 30L168 31H158L160 15V13ZM165 16L164 21V28L169 27L171 23V18L169 16H165Z" fill="#333333"/>
<path d="M148 13H159V17L152 16V20H156V24L151 23V28L157 27V31H145L148 13Z" fill="#333333"/>
<path d="M16 2H19V4L11 9L6 16L3 30H0V19L5 10L12 4L16 2Z" fill="#333333"/>
</svg>
