<svg width="173" height="53" viewBox="0 0 173 53" fill="none" xmlns="http://www.w3.org/2000/svg">
<g clip-path="url(#clip0_38_45)">
<path d="M150.164 0L151.202 0.227468L155.354 6.82403L158.468 10.691L161.236 13.6481L164.35 17.0601L166.08 19.5622L166.772 21.6094L166.426 24.1116L165.042 26.3863L162.62 28.4335L158.814 30.2532L154.662 31.1631H147.05L142.552 30.0258L139.438 29.3433L134.594 29.1159L130.096 29.5708L124.906 30.9356L123.522 31.1631H115.91L111.758 30.2532L107.952 29.3433L102.762 29.1159L98.61 29.5708L93.074 30.9356L91.69 31.1631H88.576L88.922 35.9399L93.766 33.8927L96.188 32.7554H104.838L105.184 33.4378L99.648 35.9399L95.15 37.9871L93.074 38.897L94.804 40.0343L97.226 41.1717L101.724 42.309L103.8 42.5365H107.606L107.26 42.0815V39.5794L108.644 37.0773L111.758 34.8026L114.872 33.4378L118.332 32.5279L119.716 32.3004H123.176L125.944 32.9828L128.366 34.5751L129.058 35.7124V38.2146L126.982 40.4893L124.214 42.0815L120.062 43.4464L126.29 43.2189L130.788 42.5365V42.9914H131.48V45.4936L129.75 45.9485L125.252 46.4034H115.91L111.412 45.721L108.644 46.4034H102.416L98.264 45.4936L93.42 43.9013L88.922 41.8541L88.576 46.4034H83.732L83.04 46.176L82.694 30.9356L77.504 29.5708L73.006 29.1159L67.816 29.3433L61.588 30.9356L59.858 31.1631H52.246L50.17 30.7082V31.1631H50.862L53.284 32.9828L54.322 33.6652L58.82 33.2103L63.664 32.7554H72.66L76.12 33.2103L78.542 34.1202L79.926 35.2575L80.618 36.3949L80.964 37.9871V40.2618L80.272 44.3562L79.58 46.4034H60.896L58.128 45.721L56.398 44.3562L56.052 43.6738V40.9442L57.436 39.3519L59.512 38.4421L61.934 37.9871H67.816L74.736 38.4421L74.39 37.3047L72.314 36.6223L70.584 36.3949H66.432L59.166 37.0773L54.668 37.7597L52.938 37.5322L49.824 35.485V35.03L48.786 34.8026L46.364 32.9828L42.212 30.2532L40.828 30.7082L37.022 33.4378L33.908 35.7124L32.87 36.6223H32.178L31.486 37.5322L29.756 38.897H29.064L28.372 39.8069L26.988 39.5794L23.182 36.8498L22.836 36.1674L21.798 35.9399L19.376 34.1202L15.57 31.3906L14.878 30.7082L13.494 31.1631L1.038 39.3519H0.346L0 38.897V34.8026L1.73 33.6652L5.536 31.1631L7.958 29.3433L12.802 25.9313V25.2489L11.764 25.0215L9.342 23.2017L6.92 21.6094L4.498 19.7897L2.076 18.1974V17.7425L0.692 17.2876L0 16.6052V12.5107L1.384 12.9657L1.73 13.6481L3.114 14.103L5.536 15.9227L12.802 20.6996L13.148 21.1545L14.532 20.927L18.684 17.7425L21.798 15.2403L25.604 12.2833L27.334 11.1459L31.14 13.6481L33.562 15.4678V15.9227H34.254L37.368 18.4249L41.174 21.1545L44.98 18.6524H45.672L46.364 17.7425L47.402 17.515L48.094 16.6052L51.554 14.5579L52.938 13.6481L56.398 12.9657L60.204 12.5107L64.01 12.2833H72.314L76.812 12.9657L79.58 14.3305L80.618 15.4678L80.964 16.6052V20.6996L80.272 24.5665L79.58 25.9313H60.896L58.128 25.2489L56.398 23.8841L56.052 22.9742V20.6996L57.09 19.3348L58.82 18.4249L61.242 17.7425L63.664 17.515H67.816L74.39 17.97L75.082 18.1974L74.044 16.6052L69.892 15.9227H66.778L59.512 16.6052L53.976 17.515L51.554 19.3348L46.018 23.2017L42.904 25.7039L44.98 26.1588L50.17 27.7511L52.938 28.206H58.474L62.972 27.2961L68.162 26.1588H75.082L80.272 27.2961L83.04 27.9785V12.0558H74.044V11.6009H73.352V8.87125H83.04V4.32189H87.884L88.576 4.54936V8.87125H97.918L98.264 9.09871V12.0558H88.576V28.4335L93.074 27.7511L98.264 26.3863L99.994 26.1588H106.568L111.066 27.0687L114.872 27.9785L116.256 28.206H121.792L126.29 27.2961L131.48 26.1588L136.67 25.9313L135.286 24.1116L134.94 22.7468V20.927L135.978 18.6524L139.438 14.3305L143.59 9.78112L147.05 5.45923L149.818 0.682403L150.164 0ZM151.894 7.27897L152.24 9.55365L155.008 13.1931L157.43 15.9227L159.16 19.1073V22.0644L157.43 24.3391L155.008 25.7039L152.586 26.1588H149.472L146.704 25.4764L143.936 23.8841L142.552 21.8369V18.6524L143.936 16.1502L147.05 12.2833L149.472 9.09871V7.73391L147.742 8.87125L144.282 12.0558L141.168 15.6953L139.438 18.4249L139.092 19.3348V22.5193L140.476 25.0215L142.898 26.8412L147.05 27.9785L151.548 28.206L155.354 27.7511L158.814 26.6137L160.89 25.0215L162.274 22.9742L162.62 22.0644V19.1073L161.236 16.3777L159.16 13.6481L156.046 10.4635L152.932 7.73391L151.894 7.27897ZM27.68 16.1502L23.874 19.1073L19.03 22.9742L15.224 25.9313L16.608 27.2961L20.76 30.4807L24.912 33.6652L26.988 35.2575L28.372 34.8026L32.87 31.3906L37.368 27.9785L40.482 25.4764L39.79 24.5665L38.06 23.2017L36.33 22.0644L33.562 20.2446L31.14 18.4249L28.718 16.8326L27.68 16.1502ZM65.394 20.6996L62.28 21.382V22.2918L63.664 22.7468L65.74 22.9742H69.546L72.66 22.5193L74.044 21.8369V21.382L71.276 20.6996H65.394ZM120.408 35.485L116.256 36.8498L114.18 37.9871L112.796 39.5794L113.142 41.1717L116.256 40.9442L120.408 39.5794L123.176 38.2146L124.56 36.3949L123.868 35.485H120.408ZM65.394 41.1717L62.28 41.8541L61.588 42.0815L61.934 42.764L63.664 43.2189L68.508 43.4464L72.314 42.9914L74.044 42.309V41.8541L70.93 41.1717H65.394Z" fill="#333333"/>
<path d="M26.988 11.146L29.41 12.5108L33.562 15.4679V15.9228H34.254L37.368 18.425L41.174 21.1546L44.98 18.6524H45.672L46.364 17.7426L47.402 17.5151L48.094 16.6052L51.554 14.558L52.938 13.6481L56.398 12.9657L60.204 12.5108L64.01 12.2833H72.314L76.812 12.9657L79.58 14.3305L80.618 15.4679L80.964 16.6052V20.6996L80.272 24.5666L79.58 25.9314H60.896L58.128 25.249L56.398 23.8842L56.052 22.9743V20.6996L57.09 19.3348L58.82 18.425L61.242 17.7426L63.664 17.5151H67.816L74.39 17.97L75.082 18.1975L74.044 16.6052L73.006 15.9228L69.546 15.4679H65.048L58.474 16.1503L53.976 16.8327L49.478 19.7898L47.056 21.6095L42.212 25.0215L42.904 25.9314L48.44 29.7984L50.862 31.1632L53.284 32.9829L54.322 33.6653L58.82 33.2104L63.664 32.7554H72.66L76.12 33.2104L78.542 34.1202L79.926 35.2576L80.618 36.3949L80.964 37.9872V40.2619L80.272 44.3563L79.58 46.4035H60.896L58.128 45.7211L56.398 44.3563L56.052 43.6739V40.9443L57.436 39.352L59.512 38.4421L61.934 37.9872H67.816L74.736 38.4421L74.39 37.3048L72.314 36.6224L70.584 36.3949H66.432L59.166 37.0773L54.668 37.7597L52.938 37.5323L49.824 35.4851V35.0301L48.786 34.8026L46.364 32.9829L42.212 30.2533L40.828 30.7082L37.022 33.4378L33.908 35.7125L32.87 36.6224H32.178L31.486 37.5323L29.756 38.8971H29.064L28.372 39.8069L26.988 39.5795L23.182 36.8499L22.836 36.1675L21.798 35.94L19.376 34.1202L15.57 31.3906L14.878 30.7082L13.494 31.1632L1.038 39.352H0.346L0 38.8971V34.8026L1.73 33.6653L5.536 31.1632L7.958 29.3434L12.802 25.9314V25.249L11.764 25.0215L9.342 23.2018L6.92 21.6095L4.498 19.7898L2.076 18.1975V17.7426L0.692 17.2876L0 16.6052V12.5108L1.384 12.9657L1.73 13.6481L3.114 14.1031L5.536 15.9228L12.802 20.6996L13.148 21.1546L14.532 20.9271L18.684 17.7426L21.798 15.2404L25.604 12.2833L26.988 11.146ZM27.68 16.1503L23.874 19.1074L19.03 22.9743L15.224 25.9314L16.608 27.2962L20.76 30.4808L24.912 33.6653L26.988 35.2576L28.372 34.8026L32.87 31.3906L37.368 27.9786L40.482 25.4765L39.79 24.5666L38.06 23.2018L36.33 22.0645L33.562 20.2447L31.14 18.425L28.718 16.8327L27.68 16.1503ZM65.394 20.6996L62.28 21.382V22.2919L63.664 22.7469L65.74 22.9743H69.546L72.66 22.5194L74.044 21.837V21.382L71.276 20.6996H65.394ZM65.394 41.1717L62.28 41.8542L61.588 42.0816L61.934 42.764L63.664 43.219L68.508 43.4464L72.314 42.9915L74.044 42.3091V41.8542L70.93 41.1717H65.394Z" fill="#333333"/>
<path d="M150.164 0L151.202 0.227468L155.354 6.82403L158.468 10.691L161.236 13.6481L164.35 17.0601L166.08 19.5622L166.772 21.6094L166.426 24.1116L165.042 26.3863L162.62 28.4335L158.814 30.2532L154.662 31.1631H147.05L142.552 30.0258L139.438 29.3433L134.594 29.1159L130.096 29.5708L124.906 30.9356L123.522 31.1631H115.91L111.758 30.2532L107.952 29.3433L102.762 29.1159L98.6098 29.5708L93.0738 30.9356L91.6898 31.1631H88.5758V36.6223H87.8838V11.6009H97.5718V9.09871H98.2638V12.0558H88.5758V28.4335L93.0738 27.7511L98.2638 26.3863L99.9938 26.1588H106.568L111.066 27.0687L114.872 27.9785L116.256 28.206H121.792L126.29 27.2961L131.48 26.1588L136.67 25.9313L135.286 24.1116L134.94 22.7468V20.927L135.978 18.6524L139.438 14.3305L143.59 9.78112L147.05 5.45923L149.818 0.682403L150.164 0ZM151.894 7.27897L152.24 9.55365L155.008 13.1931L157.43 15.9227L159.16 19.1073V22.0644L157.43 24.3391L155.008 25.7039L152.586 26.1588H149.472L146.704 25.4764L143.936 23.8841L142.552 21.8369V18.6524L143.936 16.1502L147.05 12.2833L149.472 9.09871V7.73391L147.742 8.87125L144.282 12.0558L141.168 15.6953L139.438 18.4249L139.092 19.3348V22.5193L140.476 25.0215L142.898 26.8412L147.05 27.9785L151.548 28.206L155.354 27.7511L158.814 26.6137L160.89 25.0215L162.274 22.9742L162.62 22.0644V19.1073L161.236 16.3777L159.16 13.6481L156.046 10.4635L152.932 7.73391L151.894 7.27897Z" fill="#0189C7"/>
<path d="M26.988 4.54932H27.68V5.00425H28.372L30.794 6.82399L34.6 9.55361L37.022 11.3734L40.828 14.103H41.52L45.326 11.3734L48.44 8.8712L51.9 6.36906L52.938 5.45919L53.976 5.68666V10.6909L50.862 12.9656L47.748 15.4678L45.326 17.06L42.558 19.3347L41.174 19.1073L38.06 17.06L35.638 15.2403L31.832 12.5107L28.718 10.236L27.68 9.55361L24.912 11.8283L21.106 14.7854L17.3 17.7424L14.878 19.7897L13.494 19.5622L0 10.6909V6.36906L2.422 7.73387L6.228 10.0085V10.4635L7.612 10.9184L7.958 11.6008L9.342 12.0558L13.494 14.7854L14.186 15.0128L14.878 14.103L19.03 10.9184L22.144 8.41627L25.95 5.45919L26.988 4.54932Z" fill="#333333"/>
<path d="M13.494 32.0728L14.878 32.5277L18.338 35.0298L20.76 36.8496L24.912 40.0341L26.988 41.6264L28.372 41.1715L31.486 38.8968L34.946 36.6221L37.368 34.8024L40.482 32.7552L40.828 32.3002L42.212 32.7552L46.71 35.9397V36.3946H47.402L49.824 38.2144V38.6693L50.862 38.8968L53.284 40.7165L53.976 41.1715V45.4934L52.592 45.0384L48.44 42.0813L45.326 39.8067L41.866 37.3045L39.444 38.6693L37.022 40.2616L34.6 42.0813L33.216 43.2187H32.524L31.832 44.1285L29.064 45.9483L28.372 46.6307L26.988 46.4032L23.874 43.9011L19.376 40.4891L15.57 37.532L14.532 36.6221L13.148 37.077L1.038 45.0384H0.346L0 44.5835V40.7165L5.19 37.3045L7.266 36.1672L9.688 34.3474L12.456 32.7552L13.494 32.0728Z" fill="#F6F6F6"/>
<path d="M103.108 11.6011L106.568 11.8285L108.644 12.7384L110.374 14.1032L111.066 15.923L110.72 17.7427L108.644 20.0174L105.53 21.6097L102.762 22.5195L101.378 22.747H106.568L111.758 22.0646L113.142 22.2921V25.0217L108.644 25.7041L105.184 25.9315H98.6099L95.1499 25.4766L91.6899 24.3393L89.6139 22.747L88.9219 21.1547V19.1075L89.9599 17.0603L92.3819 15.0131L95.4959 13.1933L99.3019 12.056L103.108 11.6011ZM101.724 15.0131L97.2259 16.6054L95.1499 18.1976L94.4579 20.2449L95.4959 20.6998L98.9559 20.2449L103.108 18.6526L105.53 17.0603L106.222 16.1504L105.876 15.0131H101.724Z" fill="#333333"/>
<path d="M158.814 31.8457H164.35L164.696 32.3006V35.7127L159.506 36.3951L157.43 37.3049L155.7 38.8972L153.278 42.5367L151.548 44.129L148.78 45.4938L145.32 46.4036H141.514L140.822 45.9487V42.3092L144.628 41.8543L147.396 40.7169L148.78 39.3521L151.548 34.8028L153.624 33.2105L156.046 32.3006L158.814 31.8457Z" fill="#FDFCFC"/>
<path d="M0 47.541H4.498L6.574 48.6784V50.4981L5.536 51.1805L6.574 52.0904L6.92 47.541H14.532L15.57 48.4509L16.262 49.5882V50.2706H16.954L17.992 47.996L18.338 47.541H26.296H26.988H31.832L33.562 48.4509L33.908 50.0432L33.562 50.7256L32.524 51.1805L34.254 52.3178V52.7728H32.178L29.41 51.1805V52.7728H21.106L20.76 52.5453L20.414 48.9058L17.992 52.7728H15.916L14.532 50.953L13.148 48.6784L12.802 48.9058H8.996V49.3608H12.11L12.802 49.8157V50.7256H8.996V51.408H12.456L12.802 51.6354V52.7728H5.19L3.114 51.408L2.076 51.1805V52.7728H0.346L0 52.5453V47.541ZM2.076 48.9058V49.8157H4.152L4.498 48.9058H2.076ZM22.836 48.9058V49.3608H26.296L26.642 50.7256H22.836V51.408L26.988 51.6354V48.9058H22.836ZM29.41 48.9058V49.8157H31.14L31.486 48.9058H29.41Z" fill="#E5E4E4"/>
<path d="M65.0482 15.2402H69.5462L73.6982 15.9226L74.0442 16.3776L69.8922 15.9226H66.7782L59.5122 16.605L53.9762 17.5149L51.5542 19.3347L46.0182 23.2016L42.9042 25.7038L44.9802 26.1587L50.1702 27.751L52.9382 28.2059H58.4742L62.9722 27.296L68.1622 26.1587H75.0822L80.2722 27.296L83.3862 28.2059V30.708L82.6942 30.9355L77.5042 29.5707L73.0062 29.1158L67.8162 29.3432L61.5882 30.9355L59.8582 31.163H52.2462L49.8242 30.9355L44.9802 27.751L42.5582 25.9312L41.8662 25.0214L44.2882 23.4291L46.7102 21.6093L52.2462 17.7424L53.9762 16.605L61.9342 15.4677L65.0482 15.2402Z" fill="#018CCB"/>
<path d="M113.488 12.0557H118.678L119.024 12.2831V13.6479L123.868 12.2831L125.252 12.0557H130.442L132.518 12.7381L131.48 15.4677H125.944L122.138 16.3776L119.37 17.7424L119.024 25.9312H114.18L113.488 25.2488V12.0557Z" fill="#333333"/>
<path d="M132.864 32.5278H137.708L138.4 34.1201L143.59 32.7553L146.012 32.5278H148.78L151.202 32.9828L151.548 33.8926L150.51 36.1673L146.012 35.9398L141.514 36.8497L138.4 38.442L138.054 46.4034H133.21L132.864 45.9484V32.5278Z" fill="#333333"/>
<path d="M83.0398 47.3135L85.4618 47.5409L87.1918 48.4508V48.9058L85.4618 49.1332L83.3858 48.9058L83.0398 49.3607L85.8078 49.5882L87.1918 50.498V52.0903L86.1538 52.7727L83.3858 53.0002L81.3098 52.3178L80.2718 51.6354L78.5418 52.7727L76.1198 53.0002L74.3898 52.5452L72.6598 51.4079L72.3138 52.7727H70.5838L70.2378 52.5452L69.8918 50.498L68.8538 51.4079L67.4698 51.1804L66.4318 50.2706L66.0858 52.7727H64.3558L64.0098 52.5452V47.5409L66.4318 47.7684L67.8158 49.1332L69.8918 47.5409H71.9678L72.6598 48.6783L74.3898 47.5409H77.8498L79.9258 48.6783L80.6178 49.8156V50.953L82.0018 50.7255L82.3478 51.1804H84.7698V50.953L81.6558 50.2706L80.6178 49.3607L80.9638 47.9959L83.0398 47.3135ZM75.7738 48.9058L74.7358 49.5882L74.3898 50.498L75.0818 51.4079H77.1578L78.1958 50.7255V49.3607L77.8498 48.9058H75.7738Z" fill="#F6F6F6"/>
<path d="M114.526 47.3135L117.294 47.5409L118.678 48.4508L118.332 49.1332L115.218 48.9058L114.872 49.3607L117.64 49.5882L119.37 50.7255L121.446 47.5409H123.522L124.56 48.4508L126.636 51.6354L126.982 47.5409H128.712L129.058 47.7684V51.4079H132.172L132.864 51.6354V47.5409H134.594L134.94 47.7684V52.7727H125.252L124.56 51.8628L121.446 52.0903L120.754 52.7727H119.024L118.332 52.5452L116.602 53.0002L113.834 52.7727L112.104 51.6354L112.45 50.953L113.488 50.7255L114.18 51.1804H116.602V50.953L113.834 50.498L112.45 49.5882V48.2233L113.488 47.5409L114.526 47.3135ZM122.484 49.8156V50.498L123.522 50.2706L123.176 49.8156H122.484Z" fill="#EBEAEA"/>
<path d="M157.084 41.1719H159.506L161.236 42.5367L161.582 41.3993H164.004L164.696 42.0817L166.08 41.3993H169.54L169.886 41.6268V43.2191L167.118 43.4466L166.772 44.5839H169.54L169.886 44.8114V46.4036H166.772L165.388 45.9487L164.696 45.2663L164.35 46.1762H162.274L160.198 44.8114L159.852 46.1762H155.354L155.008 45.7212V41.3993H156.738L157.084 41.1719Z" fill="#F6F6F6"/>
<path d="M98.9561 47.541H103.108L105.184 48.4509L105.53 48.9058L105.876 47.541H111.758L112.104 47.7685V48.9058H108.298V49.3608H111.412V49.8157H112.104V50.7256H108.298V51.408H111.758L112.104 51.6354V52.7728H106.568L105.53 51.8629L103.8 52.7728H99.3021L98.9561 52.5453V47.541ZM101.032 48.9058V51.408L103.108 51.1805L103.8 50.4981V49.3608L102.762 48.9058H101.032Z" fill="#E5E5E5"/>
<path d="M159.852 47.541H163.312L165.388 48.6784L165.734 49.1333L166.08 47.541H167.81L170.232 49.5882L170.578 47.541H172.308L172.654 47.7685V52.7728L171.27 52.5453L168.502 50.2706L168.156 52.7728L166.08 52.5453L165.734 51.6354L164.004 52.7728L161.582 53.0002L159.16 52.3178L158.122 51.408L157.776 50.7256V49.1333L159.16 47.7685L159.852 47.541ZM160.89 48.9058L159.852 50.0432L160.198 51.1805L160.544 51.408H162.62L163.658 50.7256V49.3608L163.312 48.9058H160.89Z" fill="#E0DFDF"/>
<path d="M59.5121 47.3135L61.9341 47.5409L63.6641 48.4508V48.9058L61.9341 49.1332L59.8581 48.9058L59.5121 49.3607L62.2801 49.5882L63.6641 50.498V52.0903L62.6261 52.7727L59.8581 53.0002L57.7821 52.3178L56.7441 51.6354L55.0141 52.7727L52.5921 53.0002L50.5161 52.3178L49.1321 51.4079L48.7861 49.3607L49.8241 47.9959L50.8621 47.5409H54.3221L56.3981 48.6783L57.0901 49.8156V50.953L58.4741 50.7255L58.8201 51.1804H61.2421V50.953L58.1281 50.2706L57.0901 49.3607L57.4361 47.9959L59.5121 47.3135ZM51.9001 48.9058L50.8621 50.0431L51.5541 51.4079H53.6301L54.6681 50.7255V49.1332L54.3221 48.9058H51.9001Z" fill="#EBEBEB"/>
<path d="M36.3302 47.3135L39.0982 47.5409L40.4822 48.4508L40.1362 49.1332L36.6762 48.9058L36.3302 49.3607H38.4062L40.1362 50.0431L40.4822 50.498L40.8282 47.5409H46.3642L47.0562 47.7684V48.9058H42.9042V49.3607H46.3642L46.7102 50.7255H42.9042V51.4079H46.3642L47.0562 51.6354V52.7727H41.1742L40.4822 52.0903L39.4442 52.7727L36.6762 53.0002L34.6002 52.3178L33.9082 51.8628L34.2542 50.953L35.2922 50.7255L35.9842 51.1804H38.0602L38.4062 50.7255H36.3302L34.6002 50.0431L33.9082 48.6783L34.6002 47.7684L36.3302 47.3135Z" fill="#E7E7E7"/>
<path d="M135.632 47.541L137.362 47.7685L139.784 49.5882L140.13 47.541H141.86L142.206 47.7685L142.552 50.953L144.974 47.541H147.05L149.818 51.1805L150.51 52.7728H148.78L148.088 51.8629H144.628L144.282 52.7728H140.822L138.054 50.4981L137.708 52.7728H135.978L135.632 52.5453V47.541ZM146.012 49.8157L145.666 50.4981L147.05 50.2706L146.704 49.8157H146.012Z" fill="#D3D2D3"/>
<path d="M26.9884 47.541H31.8324L33.5624 48.4509L33.9084 50.0432L33.5624 50.7256L32.5244 51.1805L34.2544 52.3178V52.7728H32.1784L29.4104 51.1805V52.7728H21.1064V52.3178H26.2964V51.6354H26.9884V48.9058H22.8364V49.5882H22.1444V48.4509H26.2964L26.6424 47.7685L26.9884 47.541ZM29.4104 48.9058V49.8157H31.1404L31.4864 48.9058H29.4104Z" fill="#DDDDDD"/>
<path d="M83.0399 47.3135L85.4619 47.5409L87.1919 48.4508V48.9058L85.4619 49.1332L83.3859 48.9058L83.0399 49.3607L85.8079 49.5882L87.1919 50.498V52.0903L86.1539 52.7727L83.3859 53.0002L81.3099 52.3178L80.2719 51.6354L78.5419 52.7727L76.1199 53.0002L74.3899 52.5452L74.0439 52.0903H77.8499L79.2339 51.1804V48.4508L80.2719 49.1332L80.6179 50.953L82.0019 50.7255L82.3479 51.1804H84.7699V50.953L81.6559 50.2706L80.6179 49.3607L80.9639 47.9959L83.0399 47.3135Z" fill="#D7D6D7"/>
<path d="M100.34 28.4336H105.53L109.682 29.116L113.834 30.2533L116.256 30.4808H123.176L128.712 29.116L132.172 28.4336H137.016L141.168 29.116L141.86 29.5709L136.67 29.116L131.48 29.3435L126.636 30.4808L123.522 31.1632H115.91L111.758 30.2533L107.952 29.3435L102.762 29.116L98.6098 29.5709L93.0738 30.9357L91.6898 31.1632H88.5758V36.6224H87.8838V30.7083L92.3818 30.2533L97.5718 28.8885L100.34 28.4336Z" fill="#323C42"/>
<path d="M0 47.541H4.498L6.574 48.6784V50.4981L5.536 51.1805L7.266 52.3178H12.11V51.6354H12.802V52.7728H5.19L3.114 51.408L2.076 51.1805V52.7728H0.346L0 52.5453V47.541ZM2.076 48.9058V49.8157H4.152L4.498 48.9058H2.076Z" fill="#333333"/>
<path d="M126.982 47.541H128.712L129.058 47.7685V51.408H132.172L132.864 51.6354V47.541H134.594L134.94 47.7685V52.7728H125.252V52.3178H126.29L123.522 48.2234L123.868 47.7685L125.944 50.4981L126.636 51.6354L126.982 47.541Z" fill="#D9D9D9"/>
<path d="M148.78 47.541H157.084L157.43 47.7685V52.7728H155.7L155.354 52.5453V48.9058H153.278V52.7728L150.856 52.5453V48.9058H149.126L148.78 48.6784V47.541Z" fill="#333333" fill-opacity="0.2"/>
<path d="M20.76 47.541H26.296V48.4509H22.144V49.5882L22.836 49.3608H26.296L26.642 50.7256H22.836V51.408H26.296V52.3178L20.76 52.5453L20.414 48.9058L17.992 52.7728H15.916V52.3178H17.3L18.338 50.0432L20.068 47.7685L20.76 47.541Z" fill="#333333"/>
<path d="M92.382 47.3135L95.15 47.5409L96.534 48.4508L96.188 49.1332L92.728 48.9058L92.382 49.3607H94.458L96.534 50.2706L96.88 51.6354L96.188 52.5452L94.458 53.0002L91.69 52.7727L89.96 51.6354L90.306 50.953L91.344 50.7255L92.036 51.1804H94.112L94.458 50.7255H92.382L90.652 50.0431L90.306 49.5882V47.9959L92.382 47.3135Z" fill="#333333"/>
<path d="M166.08 41.3989H169.54L169.886 41.6264V43.2187L167.118 43.4461L166.772 44.5835H169.54L169.886 44.8109V46.4032H166.772L165.388 45.9483L164.696 45.2659L164.35 46.1757H162.274L161.928 45.7208H163.658V41.6264H164.35L164.696 42.0813L166.08 41.3989Z" fill="#333333"/>
<path d="M50.8621 47.541H54.3221L55.7061 48.2234L56.3981 49.3608L56.0521 51.1805L54.3221 52.3178H51.2081L49.4781 51.6354L48.7861 50.7256L49.1321 48.6784L50.8621 47.541ZM51.9001 48.9058L50.8621 50.0432L51.5541 51.408H53.6301L54.6681 50.7256V49.1333L54.3221 48.9058H51.9001Z" fill="#F6F6F6"/>
<path d="M135.632 47.541L137.362 47.7685L139.784 49.5882L140.13 47.541H141.86L141.514 52.3178L140.476 52.5453L138.054 50.4981L137.708 52.7728H135.978L135.632 52.5453V47.541Z" fill="#F5F5F5"/>
<path d="M74.3905 47.541H77.8505L79.2345 48.2234L79.5805 48.9058V51.1805L77.8505 52.3178H74.7365L73.0065 51.6354L72.3145 50.7256L72.6605 48.6784L74.3905 47.541ZM75.7745 48.9058L74.7365 49.5882L74.3905 50.4981L75.0825 51.408H77.1585L78.1965 50.7256V49.3608L77.8505 48.9058H75.7745Z" fill="#333333"/>
<path d="M159.852 47.541H163.312L164.696 48.2234L165.042 48.9058V51.1805L163.312 52.3178H160.544L158.468 51.8629L157.776 50.7256V49.1333L159.16 47.7685L159.852 47.541ZM160.89 48.9058L159.852 50.0432L160.198 51.1805L160.544 51.408H162.62L163.658 50.7256V49.3608L163.312 48.9058H160.89Z" fill="#333333"/>
<path d="M114.526 47.3135L117.294 47.5409L118.678 48.4508L118.332 49.1332L115.218 48.9058L114.872 49.3607L117.64 49.5882L118.332 50.0431V51.6354L117.294 52.3178H113.834L112.104 51.6354L112.45 50.953L113.488 50.7255L114.18 51.1804H116.602V50.953L113.834 50.498L112.45 49.5882V48.2233L113.488 47.5409L114.526 47.3135Z" fill="#D8D8D8"/>
<path d="M36.3302 47.3135L39.0982 47.5409L40.4822 48.4508L40.1362 49.1332L36.6762 48.9058L36.3302 49.3607H38.4062L40.1362 50.0431L39.7902 51.8628L38.7522 52.3178H35.2922L33.9082 51.8628L34.2542 50.953L35.2922 50.7255L35.9842 51.1804H38.0602L38.4062 50.7255H36.3302L34.6002 50.0431L33.9082 48.6783L34.6002 47.7684L36.3302 47.3135Z" fill="#EDECED"/>
<path d="M98.9561 47.541H103.108L104.838 48.2234L105.184 49.3608V50.953L103.8 52.0904L99.3021 52.5453H98.9561V47.541ZM101.032 48.9058V51.408L103.108 51.1805L103.8 50.4981V49.3608L102.762 48.9058H101.032Z" fill="#333333"/>
<path d="M65.0482 15.2402H69.5462L73.6982 15.9226L74.0442 16.3776L69.8922 15.9226H66.7782L59.5122 16.605L53.9762 17.5149L51.5542 19.3347L46.0182 23.2016L42.9042 25.4763H41.8662L42.5582 24.5664L47.7482 20.9269L51.9002 17.9698L53.9762 16.605L61.9342 15.4677L65.0482 15.2402Z" fill="#433F40"/>
<path d="M164.004 32.3003H164.696V35.7123L159.506 36.3947L157.43 37.3046L155.7 38.8969L153.278 42.5363L151.548 44.1286L148.78 45.4934L145.32 46.4033H141.514V45.9484L145.666 45.4934L149.126 44.3561L150.856 43.4462L153.624 40.2617L156.046 37.0771L158.122 35.9398L160.89 35.2574H164.004V32.3003Z" fill="#423F40"/>
<path d="M164.35 17.7427L165.388 18.4251L166.426 20.4723L166.772 22.747L165.734 25.4766L163.312 27.9787L160.89 29.3435L157.776 30.4809L154.662 31.1633H147.05L142.552 30.0259L141.86 29.571L143.59 29.7985L146.358 30.4809H154.316L158.814 29.3435L162.274 27.5238L164.35 25.4766L165.734 22.747V20.6998L164.35 18.1976V17.7427Z" fill="#34373A"/>
<path d="M131.48 12.7383H132.518L131.48 15.4679H125.944L122.138 16.3778L119.37 17.7426L119.024 25.9314H114.18V25.249H118.332V17.2876L121.1 15.9228L123.868 15.013L124.906 14.7855H129.404L130.788 15.013L131.48 12.7383Z" fill="#565455"/>
<path d="M97.5718 9.09863H98.2638V12.0557H88.5758V28.4334H87.8838V11.6008H97.5718V9.09863Z" fill="#3E3A3B"/>
<path d="M130.788 42.9912H131.48V45.4934L129.75 45.9483L125.252 46.4032H115.91L111.412 45.7208L108.644 46.4032H102.416L98.2643 45.4934L97.5723 45.0384L99.6483 45.2659L102.07 45.7208H107.952L110.72 45.0384L112.45 45.2659L116.256 45.7208H123.868L128.712 45.2659H130.788V42.9912Z" fill="#444142"/>
<path d="M78.8875 34.5752L79.9255 35.2576L80.6175 36.3949L80.9635 37.9872V40.2619L80.2715 44.3563L79.5795 46.4035H60.8955L58.1275 45.7211L57.4355 45.0387L60.5495 45.7211L78.8875 45.9486L79.9255 40.7168V37.0773L78.8875 34.5752Z" fill="#3D3A3A"/>
<path d="M149.472 6.59668L149.818 7.50655L146.012 10.6911L142.206 14.7855L140.13 17.7426L139.438 19.3349V22.5194L140.822 25.0216L140.476 25.4765L138.746 23.4293L138.4 22.5194V19.1074L139.784 16.1503L142.898 12.2834L146.358 9.09883L149.126 6.82415L149.472 6.59668Z" fill="#333A3F"/>
<path d="M68.8541 28.4336H73.6981L78.8881 29.3435L83.0401 30.4808L82.6941 30.9357L77.5041 29.5709L73.0061 29.116L67.8161 29.3435L61.5881 30.9357L59.8581 31.1632H52.2461L49.8241 30.9357L48.7861 30.0259L51.5541 30.4808H59.5121L67.1241 28.6611L68.8541 28.4336Z" fill="#34393D"/>
<path d="M79.5803 14.7856L80.6183 15.468L80.9643 16.6054V20.6998L80.2723 24.5668L79.5803 25.9316H60.8963L58.8203 25.4766V25.2492L79.2343 25.4766L79.5803 22.2921L79.9263 20.9273V15.923L79.5803 14.7856Z" fill="#3B393A"/>
<path d="M12.8018 47.541H14.5318L15.5698 48.4509L16.2618 49.5882V50.2706H16.9538L17.9918 47.996L18.3378 47.541H20.4138L17.2998 52.3178L15.5698 52.5453L12.8018 48.2234V47.541Z" fill="#E8E7E7"/>
<path d="M53.6295 5.68652H53.9755V10.6908L50.8615 12.9655L47.7475 15.4676L45.3255 17.0599L42.5575 19.3346H41.5195L42.2115 18.1973L44.6335 16.605L47.0555 14.7852L50.1695 12.5106L52.5915 10.6908L52.9375 10.4633L53.2835 5.91399L53.6295 5.68652Z" fill="#444142"/>
<path d="M150.856 33.2104L151.548 33.4379L150.51 36.1675L146.012 35.9401L141.514 36.8499L138.4 38.4422L138.054 46.4036H133.21V45.9486H137.708V37.7598L140.822 36.1675L143.936 35.4851H149.472L150.856 33.2104Z" fill="#3D3A3B"/>
<path d="M148.78 47.541H155.008L154.662 48.4509H152.586V52.3178L150.856 52.5453V48.9058H149.126L148.78 48.6784V47.541Z" fill="#EAE9E9"/>
<path d="M41.174 29.3433L41.866 29.5707L41.174 30.4806L37.022 33.4377L33.908 35.7124L32.87 36.6222H32.178L31.486 37.5321L29.756 38.8969H29.064L28.372 39.8068H27.334L28.026 38.8969L31.14 36.6222L35.292 33.6652L38.406 31.3905L41.174 29.3433Z" fill="#3D3A3B"/>
<path d="M26.9878 8.87109H27.6798L27.3338 10.0084L22.8358 13.4205L19.7218 15.9226L15.5698 19.1071L14.8778 19.7895H13.8398L14.5318 18.8797L17.6458 16.3775L21.4518 13.4205L24.5658 10.9183L26.9878 8.87109Z" fill="#413E3F"/>
<path d="M13.8397 29.7983L14.5317 30.0258L13.8397 30.9357L1.0377 39.352H0.345703L0.691703 38.4421L13.8397 29.7983Z" fill="#3E3B3C"/>
<path d="M156.738 15.2402L157.776 15.9226L159.506 19.1072V22.0643L157.776 24.3389L155.008 25.9312L152.586 26.3862H149.472L146.704 25.7038L146.358 25.2488L149.126 25.7038H152.24L155.7 24.5664L157.43 23.2016L158.468 21.3819V18.8797L157.43 16.8325V16.1501H156.738V15.2402Z" fill="#333D43"/>
<path d="M40.828 36.6226H41.52L41.174 37.5324L37.022 40.262L34.6 42.0818L33.216 43.2191H32.524L31.832 44.129L29.064 45.9487L28.372 46.6311H27.334L28.026 45.7213L31.832 42.9917L35.638 40.262L39.444 37.5324L40.828 36.6226Z" fill="#403E3F"/>
<path d="M26.9882 15.6953H27.6802L27.3342 16.8327L23.8742 19.3348L20.0682 22.5193L16.9542 24.794L15.2242 26.1588L14.5322 25.9314L15.2242 25.0215L19.3762 21.8369L22.4902 19.3348L26.6422 16.1502L26.9882 15.6953Z" fill="#444141"/>
<path d="M155.008 41.3989H156.738L157.084 41.6264V45.7208H159.16V43.6736L159.852 43.9011V46.1758H155.354L155.008 45.7208V41.3989Z" fill="#333333"/>
<path d="M108.99 13.1934L110.374 14.1032L111.066 15.923L110.72 17.7427L108.644 20.0174L105.53 21.6097L102.762 22.5195L99.994 22.9745H98.264L97.918 22.5195L103.454 21.3822L106.914 20.0174L109.336 17.9702L109.682 17.5152V14.3307L108.99 13.1934Z" fill="#464345"/>
<path d="M127.328 34.1201L128.712 35.03L129.058 35.7124V38.2145L126.982 40.4892L124.214 42.0815L120.408 43.2188L119.024 43.4463H116.602V42.9914L121.446 42.0815L124.906 40.7167L127.328 38.8969L128.02 37.5321V35.4849L127.328 34.1201Z" fill="#3C393A"/>
<path d="M13.4937 35.9399H14.1857L13.4937 36.8498L1.0377 45.0387H0.345703L0.691703 44.1288L7.9577 39.352H8.6497L8.9957 38.6696L11.7637 37.0773L13.4937 35.9399Z" fill="#383536"/>
<path d="M132.864 47.541H134.594L134.94 47.7685V52.7728H133.21L132.864 52.5453V47.541Z" fill="#333333"/>
<path d="M87.5381 47.541H89.2681L89.6141 47.7685V52.7728H87.8841L87.5381 52.5453V47.541Z" fill="#333333" fill-opacity="0.2"/>
<path d="M112.45 22.5195H113.142V25.0217L108.644 25.7041L105.184 25.9315H98.6098L95.1498 25.4766L92.3818 24.5667L93.0738 24.3393L95.4958 25.0217L97.5718 25.2491H105.184L112.45 24.5667V22.5195Z" fill="#3E3C3D"/>
<path d="M65.7405 35.7124H70.2385L73.6985 36.3948L74.0445 36.8497L70.5845 36.3948H66.4325L59.1665 37.0772L54.6685 37.7596L52.9385 37.5321L53.9765 37.0772L59.8585 36.1673L65.7405 35.7124Z" fill="#4D4A4B"/>
<path d="M102.07 14.3306H104.492L106.222 14.7855L105.876 15.2404H101.724L97.2256 16.8327L95.4956 18.1975L94.8036 20.2447L94.1116 20.4722L93.7656 20.0173L94.1116 17.9701L96.5336 16.1503L102.07 14.3306Z" fill="#393435"/>
<path d="M119.716 35.0303H123.522L124.214 35.2577L123.868 35.7127H120.408L116.256 37.0775L114.526 37.9874L113.142 39.5796V40.9444H112.45L112.104 40.4895V39.1247L113.488 37.7599L115.218 36.6225L118.678 35.2577L119.716 35.0303Z" fill="#484546"/>
<path d="M103.454 33.2104H105.184L103.8 34.1203L99.6481 35.9401L95.1501 37.9873L93.0741 38.8971H92.0361L92.3821 38.2147L100.686 34.5753L103.454 33.2104Z" fill="#474445"/>
<path d="M159.16 29.1157L159.852 29.3432L158.814 30.2531L154.662 31.1629H147.05L142.552 30.0256L141.86 29.5707L143.59 29.7981L146.358 30.4805H154.316L158.814 29.3432L159.16 29.1157Z" fill="#343C42"/>
<path d="M78.8877 34.5752L79.9257 35.2576L80.6177 36.3949L80.9637 37.9872V40.2619L80.2717 44.3563L79.5797 45.9486L78.8877 46.1761L79.5797 42.0816L79.9257 40.7168V37.0773L78.8877 34.5752Z" fill="#3F3C3D"/>
<path d="M65.0476 15.2402H69.5456L73.6976 15.9226L74.0436 16.3776L69.8916 15.9226H66.7776L59.1656 16.605V16.1501L58.4736 15.9226L65.0476 15.2402Z" fill="#524F50"/>
<path d="M130.788 42.9912H131.48V45.4934L129.75 45.9483L125.252 46.4032H117.294V46.1758L122.484 45.9483L128.712 45.2659H130.788V42.9912Z" fill="#413E40"/>
<path d="M141.86 47.7681H142.206L142.552 52.3174H143.59L143.936 51.4076H148.088V51.8625H144.628L144.282 52.7724H140.822V52.3174H141.514V47.9955L141.86 47.7681Z" fill="#464344"/>
<path d="M164.004 32.3003H164.696V35.7123L159.506 36.3947L157.084 37.0771L155.7 37.5321L157.43 36.1672L160.89 35.2574H164.004V32.3003Z" fill="#464445"/>
<path d="M64.0105 20.2446H71.2765L73.6985 20.927L73.3525 21.382L71.2765 20.927H65.3945L62.2805 21.6094L61.5885 22.0644L60.8965 21.8369L61.5885 20.927L64.0105 20.2446Z" fill="#4B4949"/>
<path d="M49.4775 13.4204V14.1028L45.6715 16.8324L42.5575 19.3346H41.5195L42.2115 18.1972L44.6335 16.605L47.0555 14.7852L49.4775 13.4204Z" fill="#3F3C3D"/>
<path d="M131.48 12.7383H132.518L131.48 15.4679H125.944L123.868 15.9228L122.138 15.6954L123.176 15.2404L124.906 14.7855H129.404L130.788 15.013L131.48 12.7383Z" fill="#4B4849"/>
<path d="M64.0102 40.7168H70.2382L73.6982 41.3992L72.6602 41.6267L70.9302 41.3992H65.3942L61.5882 42.0816L61.2422 42.5365V41.6267L62.6262 40.9443L64.0102 40.7168Z" fill="#4A4748"/>
<path d="M26.9884 8.87109H27.6804L27.3344 10.0084L22.8364 13.4205L22.4904 13.8754L20.7604 14.5578L20.0684 14.3303L23.5284 11.8282L26.9884 8.87109Z" fill="#443F3F"/>
<path d="M164.696 48.4507L165.734 49.1331L166.08 50.7254L165.388 51.8627L164.004 52.7726L161.582 53L159.16 52.3176L160.544 52.0902H163.312L164.35 51.8627L164.696 51.1803V48.4507Z" fill="#494647"/>
<path d="M79.2339 48.4507L80.2719 49.1331L80.6179 50.9528L79.5799 52.3176L77.1579 53L74.7359 52.7726L74.0439 52.0902H77.8499L79.2339 51.1803V48.4507Z" fill="#4D4B4B"/>
<path d="M87.8838 30.708H92.7278L91.6898 31.1629H88.5758V36.6222H87.8838V30.708Z" fill="#3D3C3E"/>
<path d="M132.172 28.4336H137.016L141.168 29.116L141.86 29.5709L136.67 29.116L130.096 29.3435L129.404 28.8885L132.172 28.4336Z" fill="#323F47"/>
<path d="M87.8844 40.9443L88.9224 41.6267L88.5764 46.4036H83.7324V45.9486H87.8844V40.9443Z" fill="#3A3739"/>
<path d="M104.838 48.4507L105.876 49.3606V51.4078L104.492 52.5451L103.8 52.7726H99.3018V52.3176L103.8 51.8627L104.838 50.9528V48.4507Z" fill="#494546"/>
<path d="M20.068 47.7681H20.76L20.414 48.9054L17.992 52.7724H15.916V52.3174H17.3L18.338 50.0427L20.068 47.7681Z" fill="#454344"/>
<path d="M106.222 28.6611L108.99 28.8886L113.834 30.2534L120.754 30.7083V30.9358L115.91 31.1633L111.758 30.2534L107.952 29.3435L104.838 29.1161L106.222 28.6611Z" fill="#324049"/>
<path d="M55.7056 48.4507L56.7436 49.1331L57.0896 50.9528L56.0516 52.3176L53.6296 53L51.5536 52.7726L50.5156 52.0902H54.3216L55.7056 51.1803L56.0516 49.3606L55.7056 48.4507Z" fill="#413C3E"/>
<path d="M112.45 22.5195H113.142V25.0217L108.644 25.7041L105.184 25.4766V25.2491L112.45 24.5667V22.5195Z" fill="#4A4748"/>
<path d="M105.876 20.4722L106.568 20.6996L106.222 21.382L102.762 22.5194L99.994 22.9743H98.264L97.918 22.5194L103.454 21.382L105.876 20.4722Z" fill="#4A4748"/>
<path d="M149.472 44.1289L150.164 44.3564L149.472 45.2662L146.704 46.1761L145.32 46.4036H141.514V45.9486L145.666 45.4937L149.126 44.3564L149.472 44.1289Z" fill="#454243"/>
<path d="M154.662 47.7681H155.354V48.9054H153.278V52.7724H151.548V52.3174H152.586V48.4505H154.662V47.7681Z" fill="#444243"/>
<path d="M156.738 41.6265H157.084V45.7209H159.16V43.6737L159.852 43.9011V46.1758H155.354V45.7209H156.738V41.6265Z" fill="#3C3A3A"/>
<path d="M95.8423 50.043L96.8803 50.7254L96.5343 52.0902L95.4963 52.7726L92.7283 53.0001L90.6523 52.3176L91.3443 52.0902H94.8043L95.4963 51.8627L95.8423 50.043Z" fill="#4D4A4B"/>
<path d="M8.9957 38.6694L9.6877 38.8969L8.6497 39.3518L8.9957 38.6694ZM7.9577 39.3518L8.6497 39.5793L1.7297 44.1287L1.0377 45.0385H0.345703L0.691703 44.1287L7.9577 39.3518Z" fill="#4E4B4C"/>
<path d="M31.832 36.1675L32.87 36.3949L32.178 36.6224L31.486 37.5323L29.756 38.8971H29.064L28.372 39.807H27.334L28.026 38.8971L31.14 36.6224L31.832 36.1675Z" fill="#464344"/>
<path d="M39.7896 50.2705L40.8276 50.9529L40.4816 52.0903L39.4436 52.7727L36.6756 53.0001L34.5996 52.3177L35.2916 52.0903H38.7516L39.4436 51.8628L39.7896 50.2705Z" fill="#4B4849"/>
<path d="M170.578 44.5835H172.308L173 45.0384V46.1758L171.27 46.4032L170.232 45.9483V44.811L170.578 44.5835Z" fill="#BBBABA"/>
<path d="M118.332 50.2705L119.024 50.498V51.8628L117.64 52.7727L115.218 53.0001L113.488 52.5452L113.142 52.0903H117.294L117.986 51.6353L118.332 50.2705Z" fill="#4A4849"/>
<path d="M58.4745 36.395H61.2425L60.8965 36.85L54.6685 37.7598L52.9385 37.5324L53.9765 37.0774L58.4745 36.395Z" fill="#3D3B3C"/>
<path d="M86.5003 50.2705L87.1923 50.498V52.0903L86.1543 52.7727L83.3863 53.0001L81.6562 52.5452V52.3177L85.4623 52.0903L86.1543 51.6353L86.5003 50.2705Z" fill="#484546"/>
<path d="M62.9719 50.2705L63.6639 50.498V52.0903L62.6259 52.7727L59.8579 53.0001L58.1279 52.5452V52.3177L61.9339 52.0903L62.6259 51.6353L62.9719 50.2705Z" fill="#494547"/>
<path d="M12.1098 51.6353H12.8018V52.7726H5.18975L4.84375 52.3177H12.1098V51.6353Z" fill="#3E3B3C"/>
<path d="M71.622 47.7681H72.314V52.7724H70.584V52.3174H71.622V47.7681Z" fill="#3C393A"/>
<path d="M41.1744 29.3433L41.8664 29.5707L41.1744 30.4806L39.0984 32.0729L37.7144 32.5278L36.6764 33.2102L35.9844 32.9827L39.0984 30.9355L41.1744 29.3433Z" fill="#474445"/>
<path d="M157.084 47.7681H157.43V52.7724H155.7V52.3174H156.738V47.9955L157.084 47.7681Z" fill="#514F4F"/>
<path d="M134.594 47.7681H134.94V52.7724H133.21V52.3174H134.248V47.9955L134.594 47.7681Z" fill="#545051"/>
<path d="M89.2678 47.7681H89.6138V52.7724H87.8838V52.3174H88.9218V47.9955L89.2678 47.7681Z" fill="#413F3F"/>
<path d="M163.658 41.6265H164.35V46.1758H162.274L161.928 45.7209H163.658V41.6265Z" fill="#4B4849"/>
<path d="M47.4022 21.6094V22.2918L42.9042 25.4763H41.8662L42.5582 24.5665L47.4022 21.6094Z" fill="#3A383A"/>
<path d="M26.9883 15.6953H27.6803L27.3343 16.8327L24.2203 19.1073L23.5283 18.8799L24.2203 17.97L26.9883 15.6953Z" fill="#454344"/>
<path d="M169.194 41.6265H169.886V43.2187L167.118 43.4462L166.772 44.5835L166.08 44.3561V42.9913L167.118 42.5363L169.194 42.7638V41.6265Z" fill="#454243"/>
<path d="M164.004 32.3003H164.696V35.7123L160.89 35.4848V35.2574H164.004V32.3003Z" fill="#636262"/>
<path d="M68.8542 28.4336H73.6982V28.6611L70.5842 28.8885V29.116L65.7402 29.5709L66.0862 28.8885L68.8542 28.4336Z" fill="#2C4451"/>
<path d="M146.358 25.249L149.126 25.704H153.97V26.1589L152.586 26.3864H149.472L146.704 25.704L146.358 25.249Z" fill="#33363A"/>
<path d="M46.3638 51.6353H47.0558V52.7726H41.1738V52.3177H46.3638V51.6353Z" fill="#3D393A"/>
<path d="M26.2964 51.6353H26.9884V52.7726H21.1064V52.3177H26.2964V51.6353Z" fill="#3B3638"/>
<path d="M120.754 51.4077H124.56V51.8627L121.446 52.0901L120.754 52.7725H119.024V52.3176L120.062 52.0901L120.754 51.4077Z" fill="#433F3F"/>
<path d="M123.522 47.7681L124.56 48.4505L126.982 52.09V52.7724H125.252V52.3174H126.29L123.522 48.223V47.7681Z" fill="#454243"/>
<path d="M46.3639 47.7681H47.0559V48.9054H42.9039V49.5878H42.2119V48.4505H46.3639V47.7681Z" fill="#524F50"/>
<path d="M26.2956 47.7681L26.9876 47.9955V48.9054H22.8356V49.5878H22.1436V48.4505H26.2956V47.7681Z" fill="#4F4C4D"/>
<path d="M79.5797 42.0815L79.9257 42.5365H80.6177L79.9257 45.721L78.8877 46.176L79.5797 42.0815Z" fill="#4C4849"/>
<path d="M96.5336 16.1504L97.2256 16.3779L94.8036 18.1976V20.4723H94.1116L93.7656 20.0173L94.1116 17.9701L96.5336 16.1504Z" fill="#575556"/>
<path d="M132.172 51.6353H132.864V52.7726H127.328V52.3177H132.172V51.6353Z" fill="#3A3638"/>
<path d="M111.412 51.6353H112.104V52.7726H106.568V52.3177H111.412V51.6353Z" fill="#3D393B"/>
<path d="M75.0819 48.4507H77.5039L77.8499 48.9056L75.0819 49.1331L74.7359 51.1803L74.0439 50.9528V49.1331L75.0819 48.4507Z" fill="#3F3D3E"/>
<path d="M100.34 48.4507H102.416L103.454 49.1331L101.032 48.9056V51.4078H100.34V48.4507Z" fill="#403D3E"/>
<path d="M103.454 33.2104H105.184L103.8 34.1203L101.724 35.0302L99.6484 35.2577L101.032 34.3478L103.454 33.2104Z" fill="#403E3F"/>
<path d="M65.3944 49.1328L66.0864 49.3603V52.7723H64.3564V52.3174H65.3944V49.1328Z" fill="#494647"/>
<path d="M111.758 47.7681H112.104V48.9054H108.298V49.5878H107.606V48.4505H111.412L111.758 47.7681Z" fill="#4A4748"/>
<path d="M12.4557 47.7681H12.8017V48.9054H8.99571V49.5878H8.30371V48.4505H12.1097L12.4557 47.7681Z" fill="#4B4849"/>
<path d="M160.198 48.4507H162.966L163.312 48.9056L160.89 49.1331L160.198 50.043V51.1803L159.506 50.9528V48.9056L160.198 48.4507Z" fill="#484546"/>
<path d="M141.514 35.9399H142.552L142.206 36.6223L140.13 37.5322L138.4 37.9872L137.708 38.2146L138.4 37.3047L141.514 35.9399Z" fill="#474445"/>
<path d="M127.328 34.1201L128.712 35.03L129.058 35.7124V38.2145L128.02 38.442V35.4849L127.328 34.1201Z" fill="#524E50"/>
<path d="M25.9496 49.8154H26.6416V50.7253H22.8356V51.4077H22.1436V50.2704H25.9496V49.8154Z" fill="#686666"/>
<path d="M51.5536 48.4507H53.9756L54.3216 48.9056L51.8996 49.1331L51.2076 50.4979L50.8616 51.1803L50.5156 50.9528V49.1331L51.5536 48.4507Z" fill="#413E3F"/>
<path d="M137.016 49.3604L137.708 49.5878V52.7724H135.978V52.3174H137.016V49.3604Z" fill="#434041"/>
<path d="M62.6263 47.9956L63.6643 48.4505V48.9055L61.9343 49.1329L59.8583 48.9055L58.8203 49.1329L59.1663 48.2231L62.2803 48.4505L62.6263 47.9956Z" fill="#535051"/>
<path d="M31.832 43.4463V44.1287L29.064 45.9484L28.372 46.6308H27.334L28.026 45.721L31.832 43.4463Z" fill="#383536"/>
<path d="M40.8278 36.6226H41.5198L41.1738 37.5324L39.0978 38.4423L36.6758 39.8071L37.3678 38.8972L40.8278 36.6226Z" fill="#4A4849"/>
<path d="M163.658 51.8628L164.35 52.0903L164.004 52.7727L161.582 53.0001L159.16 52.3177L160.544 52.0903H163.312L163.658 51.8628Z" fill="#535152"/>
<path d="M167.464 49.3604H168.156V52.7724H166.772V52.3174H167.464V49.3604Z" fill="#5E5C5C"/>
<path d="M36.3297 48.2231L39.4437 48.4506H40.4817L40.1357 49.133L36.6757 48.9055L36.3297 49.3605H35.6377V48.4506L36.3297 48.2231Z" fill="#4E4C4C"/>
<path d="M169.194 44.811H169.886V46.4033H166.772L165.388 45.7209L169.194 45.9484V44.811Z" fill="#454243"/>
<path d="M95.1498 29.5708L96.8798 29.7983L95.8418 30.2532L92.7278 30.9356L91.3438 30.4807L95.1498 29.5708Z" fill="#2F363B"/>
<path d="M128.712 29.1157H130.096V29.5707L125.598 30.708L125.252 30.0256L128.712 29.1157Z" fill="#35393D"/>
<path d="M102.07 14.3306H104.492L106.222 14.7855L105.876 15.2404L101.724 15.013L101.032 14.558L102.07 14.3306Z" fill="#5E5C5C"/>
<path d="M92.3824 48.2231L95.4964 48.4506H96.5344L96.1884 49.133L92.7284 48.9055L92.0364 49.3605L91.6904 48.4506L92.3824 48.2231Z" fill="#4B4949"/>
<path d="M48.7861 30.0259L51.5541 30.4808L57.0901 30.7083V30.9358L52.2461 31.1632L49.8241 30.9358L48.7861 30.0259Z" fill="#36434B"/>
<path d="M32.8703 48.2231L33.9083 48.9055L33.5623 50.7253L31.4863 50.9528V50.4978H32.5243L32.8703 48.6781V48.2231Z" fill="#484445"/>
<path d="M119.37 42.5366L121.446 42.7641L120.408 43.219L119.024 43.4465H116.602V42.9916L119.37 42.5366Z" fill="#555253"/>
<path d="M50.5156 52.0903H55.0136V52.7727L52.5916 53.0002L50.5156 52.3178V52.0903Z" fill="#4B4849"/>
<path d="M5.88205 48.4507L6.57405 48.6782V50.4979L4.84405 51.1803L4.49805 50.4979L5.53605 50.043L5.88205 48.4507Z" fill="#524F50"/>
<path d="M107.952 45.7212H109.336V46.1761L108.644 46.4036L103.108 46.1761V45.9487L107.952 45.7212Z" fill="#504E4F"/>
<path d="M157.43 36.6226L158.122 36.85L156.392 38.2148L155.354 39.5796L154.662 38.6698L155.7 37.5324L157.43 36.6226Z" fill="#3C393A"/>
<path d="M21.1062 20.9272V21.6096L18.6842 23.4294L17.9922 23.2019L18.6842 22.2921L21.1062 20.9272Z" fill="#403B3D"/>
<path d="M121.792 15.6953L122.83 15.9228L121.1 16.8327L118.678 17.5151L119.024 16.8327L121.792 15.6953Z" fill="#444142"/>
<path d="M21.4519 13.8755L22.1439 14.103L19.3759 16.1502H18.3379L19.0299 15.2403L21.4519 13.8755Z" fill="#3C3A3B"/>
<path d="M1.3837 50.7251L3.1137 50.9526L2.0757 51.18V52.7723H0.345703V52.3174H1.3837V50.7251Z" fill="#4C494A"/>
<path d="M165.734 22.7466H166.426L166.08 24.7938L165.388 25.4762H164.696L165.734 22.7466Z" fill="#313C43"/>
<path d="M28.7177 50.7251H30.1017V51.18H29.4097V52.7723H27.6797V52.3174H28.7177V50.7251Z" fill="#3D3A3A"/>
<path d="M114.872 45.7212L122.484 45.9487V46.1761L115.91 46.4036L114.872 45.7212Z" fill="#555353"/>
<path d="M123.868 41.1719L124.56 41.3993L122.83 42.5367L120.754 42.7641V42.3092L123.868 41.1719Z" fill="#434142"/>
<path d="M69.8924 49.1328L70.2384 50.0427L68.8544 51.4075H67.8164L68.5084 50.2702L69.8924 49.1328Z" fill="#413E3F"/>
<path d="M1.38379 48.4507H4.15179L4.49779 48.9056H2.07579V50.043H1.38379V48.4507Z" fill="#575555"/>
<path d="M100.34 14.7856H101.724V15.2406L99.3023 15.923H97.5723L98.9563 15.2406L100.34 14.7856Z" fill="#454343"/>
<path d="M23.1824 12.0557V12.7381L22.4904 13.8754L20.7604 14.5578L20.0684 14.3303L23.1824 12.0557Z" fill="#4E4B4C"/>
</g>
<defs>
<clipPath id="clip0_38_45">
<rect width="173" height="53" fill="white"/>
</clipPath>
</defs>
</svg>
