<svg width="79" height="26" viewBox="0 0 79 26" fill="none" xmlns="http://www.w3.org/2000/svg">
<g clip-path="url(#clip0_675_6926)">
<path d="M76.1457 4.97275V7.8753H74.1176V4.97275H71.2822V2.91038H74.1176V0.0270996H76.1457V2.91038H78.9999V4.97275H76.1457Z" fill="#282828"/>
<path d="M14.6568 6.8623H11.1248V20.7244H14.6568V6.8623Z" fill="#282828"/>
<path d="M12.917 -1.51923e-05C13.1936 0.000332624 13.4675 0.0561939 13.7228 0.164367C13.9782 0.272539 14.21 0.430896 14.405 0.63036C14.6001 0.829823 14.7545 1.06647 14.8594 1.32674C14.9644 1.58701 15.0178 1.86577 15.0166 2.14706C15.0209 2.43063 14.9698 2.71226 14.8664 2.97563C14.7629 3.239 14.6091 3.47887 14.4138 3.68135C14.2185 3.88382 13.9857 4.04489 13.7287 4.1552C13.4718 4.26551 13.1959 4.32288 12.917 4.32399C12.6352 4.32816 12.3554 4.27532 12.0939 4.16854C11.8323 4.06176 11.5943 3.90317 11.3935 3.702C11.1928 3.50082 11.0334 3.26108 10.9246 2.9967C10.8158 2.73232 10.7598 2.44858 10.7598 2.16199C10.7598 1.87539 10.8158 1.59165 10.9246 1.32727C11.0334 1.0629 11.1928 0.823149 11.3935 0.621975C11.5943 0.420801 11.8323 0.262213 12.0939 0.155434C12.3554 0.0486551 12.6352 -0.00418556 12.917 -1.51923e-05Z" fill="#282828"/>
<path d="M21.4434 8.50624C22.1738 7.14152 23.9244 6.3396 25.7058 6.3396C29.2664 6.3396 32.3602 9.18979 32.3602 13.5532C32.3602 17.9759 29.2664 20.7958 25.7058 20.7958C23.9244 20.7958 22.1738 20.0531 21.4434 18.6582V25.9999H17.8828V6.63671H21.4434V8.50624ZM25.1215 17.3528C25.6026 17.3607 26.0802 17.2686 26.5251 17.0822C26.9699 16.8959 27.3727 16.6191 27.7088 16.269C28.0449 15.9189 28.3072 15.5027 28.4796 15.0459C28.6521 14.5892 28.7311 14.1014 28.7117 13.6126C28.7291 13.1201 28.6487 12.6291 28.4753 12.1689C28.302 11.7088 28.0392 11.2888 27.7027 10.9342C27.3662 10.5795 26.963 10.2975 26.5169 10.1048C26.0709 9.91217 25.5912 9.81289 25.1066 9.81289C24.622 9.81289 24.1424 9.91217 23.6964 10.1048C23.2503 10.2975 22.847 10.5795 22.5106 10.9342C22.1741 11.2888 21.9113 11.7088 21.738 12.1689C21.5646 12.6291 21.4842 13.1201 21.5016 13.6126C21.4801 14.1045 21.5586 14.5957 21.7322 15.0554C21.9058 15.5151 22.1707 15.9335 22.5104 16.2845C22.8501 16.6355 23.2572 16.9115 23.7065 17.0953C24.1558 17.2791 24.6375 17.3668 25.1215 17.3528Z" fill="#282828"/>
<path d="M38.0715 8.50624C38.8019 7.14152 40.5525 6.3396 42.334 6.3396C45.8945 6.3396 48.9884 9.18979 48.9884 13.5532C48.9884 17.9759 45.8945 20.7958 42.334 20.7958C40.5525 20.7958 38.8019 20.0531 38.0715 18.6582V25.9999H34.511V6.63671H38.0715V8.50624ZM41.7497 17.3528C42.2307 17.3607 42.7083 17.2686 43.1532 17.0822C43.5981 16.8959 44.0009 16.6192 44.337 16.269C44.6731 15.9189 44.9353 15.5027 45.1078 15.046C45.2802 14.5892 45.3592 14.1014 45.3399 13.6126C45.3572 13.1201 45.2768 12.6291 45.1035 12.1689C44.9301 11.7088 44.6674 11.2888 44.3309 10.9342C43.9944 10.5795 43.5911 10.2975 43.1451 10.1048C42.6991 9.91217 42.2194 9.81289 41.7348 9.81289C41.2502 9.81289 40.7706 9.91217 40.3245 10.1048C39.8785 10.2975 39.4752 10.5795 39.1387 10.9342C38.8023 11.2888 38.5395 11.7088 38.3661 12.1689C38.1928 12.6291 38.1124 13.1201 38.1297 13.6126C38.1083 14.1045 38.1868 14.5957 38.3604 15.0554C38.534 15.5151 38.7988 15.9335 39.1385 16.2845C39.4782 16.6355 39.8854 16.9115 40.3346 17.0953C40.7839 17.2791 41.2656 17.3668 41.7497 17.3528Z" fill="#282828"/>
<path d="M51.3525 0.185547H54.9143V20.7246H51.3525V0.185547Z" fill="#282828"/>
<path d="M71.3428 14.9949H60.951C61.1849 16.8354 62.7028 17.9634 64.717 17.9634C66.0887 17.9634 67.4901 17.3705 68.1326 16.1833C68.9782 16.6578 69.9711 17.1917 70.8464 17.6663C69.6208 20.0419 66.9937 21.0212 64.483 21.0212C60.6006 21.0212 57.4189 18.1117 57.4189 13.7484C57.4189 9.38504 60.6006 6.56494 64.483 6.56494C68.3655 6.56494 71.401 9.38495 71.401 13.7484C71.401 14.1048 71.3725 14.6688 71.3428 14.9949ZM67.9283 12.5312C67.6647 10.6315 66.2644 9.59282 64.5127 9.59282C62.6445 9.59282 61.1849 10.6616 60.9224 12.5312H67.9283Z" fill="#282828"/>
<path d="M8.74948 6.51411C8.72778 6.50853 8.71387 6.49783 8.69176 6.4925C8.27277 6.39549 7.84413 6.34816 7.41443 6.35148C5.86686 6.35148 4.26236 7.39004 3.56164 9.91423V6.64868H0V20.5108H3.56164V15.6135C3.56164 11.9324 4.55343 9.73558 6.97617 9.73558C7.57843 9.72912 8.17761 9.82391 8.74948 10.0161V6.51411Z" fill="#282828"/>
</g>
<defs>
<clipPath id="clip0_675_6926">
<rect width="79" height="26" fill="white"/>
</clipPath>
</defs>
</svg>
