<svg width="227" height="31" viewBox="0 0 227 31" fill="none" xmlns="http://www.w3.org/2000/svg">
<path d="M62.7287 14.6993L63.0609 14.9518L65.8511 11.816L65.6053 11.6034C65.2532 11.6832 65.1934 11.8825 64.7018 11.7496C63.413 10.6733 60.7688 9.98242 59.1146 9.98242C55.1816 9.98242 52.0591 12.6863 51.614 15.656C51.0493 19.403 53.6071 20.5124 56.3376 21.4824L58.2642 22.2265C59.3803 22.645 60.7157 23.223 60.43 25.1231C60.0713 27.5081 57.6397 28.3186 56.5701 28.3186C55.7229 28.2639 54.8952 28.0407 54.1354 27.6619C53.3756 27.2832 52.6991 26.7566 52.1455 26.1129C52.0979 25.9787 52.0791 25.8359 52.0906 25.6939C52.102 25.552 52.1434 25.414 52.212 25.2892L52.006 25.1629L49.0098 28.3385L49.2091 28.498C49.3585 28.4117 49.5281 28.3663 49.7007 28.3663C49.8733 28.3663 50.0428 28.4117 50.1923 28.498C51.8077 29.835 53.823 30.5948 55.919 30.6571C60.3436 30.6571 63.486 28.2389 64.0308 24.6381C64.6221 20.7118 62.6622 19.7351 60.1178 18.712L57.2743 17.6756C56.2579 17.297 55.0421 16.8186 55.2813 15.0714C55.6134 12.879 57.6995 12.5136 59.0083 12.5136C61.2007 12.5136 62.8682 14.0084 62.835 14.1878C62.8018 14.3672 62.8018 14.5332 62.7287 14.6993Z" fill="white"/>
<path d="M74.0486 30.2839L74.0884 30.0115C74.6199 29.6195 74.414 29.5863 74.507 28.9818L73.9423 25.5935H68.3949L66.7938 28.9153C66.7938 28.9153 66.3155 29.6793 67.0729 29.9849L67.033 30.264H63.0469L63.0867 29.9916C63.7511 29.8853 64.1763 29.2342 64.5085 28.5433L71.6303 13.6152H75.3308L78.0878 28.0517C78.2606 29.2209 78.3204 29.7923 78.9847 30.0049L78.9449 30.2772L74.0486 30.2839ZM73.5437 23.6404C73.2048 21.2819 72.7066 19.5612 72.3943 16.8573H72.3478C71.4975 18.9699 70.4278 21.1291 69.3117 23.6404H73.5437Z" fill="white"/>
<path d="M96.4444 13.6289L96.3912 13.9611C95.6139 14.2335 95.594 14.5059 95.4811 15.2433L93.2289 30.2511H90.6911L84.2867 18.3525H84.2402L82.7454 28.3178C82.5328 29.693 82.6258 29.5801 83.1905 29.972L83.1507 30.2444H79.4502L79.4967 29.9787C80.2142 29.5867 80.2541 29.3808 80.367 28.65L82.3601 15.2566C82.4664 14.5125 82.4597 14.1936 81.6359 13.9677L81.6891 13.6422H85.9077L91.7474 24.8631V25.0359L93.1558 15.6419C93.3618 14.2667 93.1558 14.3663 92.6111 13.9877L92.6642 13.6555L96.4444 13.6289Z" fill="white"/>
<path d="M145.66 13.6289L145.607 13.9611C144.83 14.2335 144.81 14.5059 144.697 15.2433L142.445 30.2511H139.9L133.502 18.3525H133.456L131.961 28.3178C131.755 29.693 131.848 29.5801 132.406 29.972L132.366 30.2444H128.659L128.699 29.972C129.417 29.5801 129.456 29.3741 129.569 28.6433L131.562 15.2499C131.675 14.5059 131.662 14.187 130.838 13.9611L130.885 13.6355H135.11L140.95 24.8565V25.0292L142.358 15.6353C142.571 14.26 142.358 14.3597 141.813 13.981L141.867 13.6488L145.66 13.6289Z" fill="white"/>
<path d="M103.002 12.4395C103.135 11.5493 103.308 10.958 102.417 10.9248L102.477 10.5527H111.386C113.06 10.5527 116.482 11.6356 115.917 15.4158C115.545 17.8606 113.213 19.4019 112.024 19.8271V19.8936C112.571 19.9965 113.092 20.2062 113.558 20.5106C114.024 20.8151 114.426 21.2083 114.74 21.6679C115.054 22.1275 115.274 22.6445 115.388 23.1892C115.503 23.734 115.508 24.296 115.405 24.843C114.708 29.4935 109.931 30.397 108.303 30.397H99.4941L99.5672 29.912C100.464 29.8788 100.471 29.3008 100.604 28.4106L103.002 12.4395ZM105.6 18.8372H107.892C111.061 18.8372 111.878 17.2096 112.077 15.8543C112.276 14.499 112.19 12.7052 109.141 12.7052H106.523L105.6 18.8372ZM104.191 28.2379H107.161C110.33 28.2379 111.333 26.3909 111.579 24.7766C111.771 23.4811 111.625 20.9897 108.576 20.9897H105.254L104.191 28.2379Z" fill="white"/>
<path d="M126.925 30.3445H116.036V30.0721C116.827 30.0721 116.993 29.4675 117.106 28.7434L119.099 15.5825C119.212 14.8384 119.265 13.9415 118.488 13.915L118.527 13.6426H129.157C128.997 14.4815 128.884 15.3288 128.818 16.1804H128.426C128.227 15.5161 128.154 15.6423 126.706 15.5958H122.547L121.776 20.7246H124.254C125.058 20.7246 125.184 20.8774 125.696 20.0602H126.134L125.649 23.3222H125.211C125.211 22.5715 124.879 22.5914 123.975 22.5848H121.497L120.627 28.358H125.43C126.433 28.358 126.686 28.5175 126.998 27.6937H127.33L126.925 30.3445Z" fill="white"/>
<path d="M156.489 30.3445H145.62V30.0721C146.411 30.0721 146.577 29.4675 146.69 28.7434L148.683 15.5825C148.796 14.8384 148.849 13.9415 148.065 13.915L148.105 13.6426H158.734C158.575 14.4819 158.46 15.329 158.389 16.1804H157.997C157.798 15.5161 157.731 15.6423 156.283 15.5958H152.078L151.307 20.7246H153.785C154.596 20.7246 154.715 20.8774 155.233 20.0602H155.672L155.18 23.3222H154.742C154.742 22.5715 154.416 22.5914 153.513 22.5848H151.028L150.164 28.358H154.968C155.971 28.358 156.217 28.5175 156.535 27.6937H156.888L156.489 30.3445Z" fill="white"/>
<path d="M185.986 30.3445H175.124V30.0721C175.915 30.0721 176.081 29.4675 176.194 28.7434L178.187 15.5825C178.3 14.8384 178.359 13.9415 177.575 13.915L177.615 13.6426H188.245C188.085 14.4815 187.971 15.3288 187.906 16.1804H187.514C187.315 15.5161 187.242 15.6423 185.794 15.5958H181.608L180.837 20.7246H183.316C184.119 20.7246 184.246 20.8774 184.757 20.0602H185.196L184.711 23.3222H184.272C184.272 22.5715 183.94 22.5914 183.036 22.5848H180.558L179.688 28.358H184.498C185.495 28.358 185.747 28.5175 186.059 27.6937H186.418L185.986 30.3445Z" fill="white"/>
<path d="M216.081 30.6901C214.978 30.7153 213.883 30.4942 212.876 30.0432C211.869 29.5921 210.975 28.9223 210.259 28.0824C209.543 27.2426 209.023 26.2538 208.738 25.1879C208.452 24.1221 208.407 23.0059 208.607 21.9206C209.03 19.5224 210.264 17.3421 212.102 15.7446C213.94 14.1471 216.271 13.2292 218.705 13.1445C219.797 13.1504 220.875 13.3937 221.864 13.8576C222.853 14.3214 223.729 14.9947 224.432 15.8308C225.134 16.6669 225.647 17.6457 225.934 18.6996C226.221 19.7534 226.275 20.857 226.093 21.9339C225.681 24.3204 224.462 26.4928 222.639 28.0871C220.816 29.6813 218.501 30.6004 216.081 30.6901ZM218.307 15.3037C214.114 15.3037 212.919 19.5423 212.573 21.8476C212.088 25.0896 212.726 28.7569 216.307 28.7569C220.001 28.7569 221.708 24.9102 222.186 21.728C222.638 18.7251 221.967 15.3037 218.307 15.3037Z" fill="white"/>
<path d="M161.525 15.2703C161.631 14.5461 161.638 13.9881 160.86 13.9416L160.913 13.5762H168.766C172.393 13.5762 176.074 16.6787 175.224 22.0201C174.453 27.0161 169.61 30.3644 165.305 30.3644H158.396L158.442 30.0455C159.146 29.8196 159.352 29.7333 159.465 29.0091L161.525 15.2703ZM162.96 28.3647L165.258 28.4178C168.354 28.4178 170.573 26.3052 171.178 22.153C171.882 17.5025 170.513 15.4297 166.733 15.5094L164.886 15.5626L162.96 28.3647Z" fill="white"/>
<path d="M210.082 13.5371H188.949L188.73 14.9854C188.564 16.0949 188.73 15.2711 188.53 16.3805H188.743C189.161 15.5833 189.454 15.6033 190.656 15.6033H192.968L191.048 28.226C190.862 29.4949 190.656 30.0663 189.939 30.0663L189.899 30.3386H195.214L195.254 30.0663C194.536 30.0663 194.509 29.475 194.589 28.226L196.509 15.6033H201.93L200.057 28.226C199.764 29.475 199.565 30.0663 198.848 30.0663L198.808 30.3386H204.123L204.163 30.0663C203.445 30.0663 203.412 29.4949 203.604 28.226L205.478 15.6033H207.797C208.999 15.6033 209.298 15.6033 209.471 16.3805H209.683C209.81 15.2711 209.743 16.0949 209.909 14.9854L210.082 13.5371Z" fill="white"/>
<path d="M19.6647 6.59374C19.7842 6.38779 20.329 6.59374 20.5416 6.71997C20.7542 6.8462 20.9269 6.36786 21.8703 6.37451C22.3518 6.40672 22.8196 6.54754 23.2389 6.7864C23.5091 7.01355 23.8436 7.15059 24.1956 7.17837C24.5742 7.17837 24.561 7.27138 25.5243 6.57381C27.118 5.5211 28.7905 4.59269 30.5269 3.79681C33.4974 2.45982 36.6615 1.6032 39.9009 1.25897C42.1331 1.13275 44.9899 0.98659 47.3417 1.52472C47.7403 1.61773 47.5277 1.89011 47.2619 1.93662C44.2251 2.51999 41.2587 3.42415 38.4127 4.6339C35.7707 5.80483 33.2114 7.15438 30.7527 8.67317C29.2181 9.60327 29.1516 10.6662 29.6433 11.8754C30.5645 13.7235 31.819 15.3857 33.3437 16.7783C34.5993 17.7748 35.9214 19.3228 40.0471 20.3193C40.346 20.3924 40.1467 20.6648 39.8345 20.6581C36.9777 20.6781 34.3203 19.3494 32.3273 18.4193C32.7923 19.4756 34.6126 22.319 34.7455 25.7272C34.7455 25.9863 34.5329 26.2055 34.42 25.8069C33.8436 23.7795 32.8853 21.8808 31.5965 20.213C30.1415 18.5256 29.0453 17.1836 26.7135 15.8814C24.3816 14.5793 23.6242 14.5062 22.2556 15.7618C19.2876 18.5644 16.8561 21.8853 15.0806 25.5611C14.4341 26.8135 13.8769 28.11 13.4131 29.4409C12.8949 31.0088 12.7487 29.5871 12.7952 29.0954C13.098 22.7814 15.4779 16.7442 19.565 11.9219C20.0965 11.2575 20.5948 10.7127 20.5682 9.80257C20.5183 9.31135 20.3716 8.8349 20.1364 8.40078C20.0168 8.0221 20.1364 7.78294 20.1364 7.55706C20.1416 7.4371 20.1178 7.31765 20.0669 7.20891C20.016 7.10016 19.9395 7.00535 19.844 6.93256C19.7045 6.83291 19.6049 6.72662 19.6647 6.59374Z" fill="white"/>
<path d="M41.888 23.1753C41.5087 25.6602 40.7772 28.0784 39.7156 30.3569H42.3331C43.4532 28.0939 44.2174 25.6714 44.5986 23.1753C45.6682 16.0733 43.2699 9.74866 38.6858 5.68945L37.1777 6.27408C40.9978 10.2536 42.9111 16.3457 41.888 23.1753Z" fill="white"/>
<path d="M2.97008 23.174C4.77048 11.2156 14.9285 1.46956 25.6844 1.46956C27.5934 1.45824 29.4893 1.78437 31.2849 2.43288L32.4608 2.07412C30.302 1.3425 28.0368 0.974314 25.7574 0.984584C13.5134 0.984584 2.09313 10.9499 0.252866 23.1607C-0.0966233 25.4207 -0.080922 27.7221 0.299371 29.977L2.91028 29.8707C2.608 27.6472 2.62813 25.3918 2.97008 23.174Z" fill="white"/>
</svg>
